<svg height="793.701" width="1122.52" xml:space="preserve" xmlns="http://www.w3.org/2000/svg">
  <defs>
    <clipPath id="a" clipPathUnits="userSpaceOnUse">
      <path d="M0 595.276h841.89V0H0Z"/>
    </clipPath>
  </defs>
  <text style="font-variant:normal;font-weight:400;font-stretch:normal;font-size:18.50419998px;font-family:LeedsUni;-inkscape-font-specification:LeedsUni;writing-mode:lr-tb;fill:#be1622;fill-opacity:1;fill-rule:nonzero;stroke:none" transform="translate(269.793 454.925) scale(1.33333)"><tspan y="0" x="0 8.5304365 18.097107 22.723158 31.253593 40.524197 49.794804 58.861858 63.580433 73.147102 78.772377 87.043755 96.554916 101.18097 106.80624 111.52481 125.71754 133.98891 138.61496 150.2171 154.84314 164.11375 168.88783 177.41827 184.93097">an appointed time &amp; place</tspan></text>
  <text style="font-variant:normal;font-weight:400;font-stretch:normal;font-size:120px;font-family:LeedsUni;-inkscape-font-specification:LeedsUni;writing-mode:lr-tb;fill:#063;fill-opacity:1;fill-rule:nonzero;stroke:none" transform="translate(590.39 417.891) scale(1.33333)"><tspan y="0" x="0 76.68">AT</tspan></text>
  <g clip-path="url(#a)" transform="matrix(1.33333 0 0 -1.33333 0 793.701)">
    <path style="fill:#063;fill-opacity:1;fill-rule:nonzero;stroke:none" d="M0 0c0-.237-.026-.407-.077-.51-.083-.165-.309-.247-.68-.247h-5.434v29.628c0 .762.097 1.143.293 1.143.072 0 .298-.243.679-.726.504-.628.942-1.109 1.313-1.443.37-.335.993-.826 1.868-1.475.617-.453.926-.736.926-.849 0-.155-.155-.273-.463-.355-.402-.114-.695-.294-.88-.541-.309-.401-.463-1.075-.463-2.022V2.517h2.161c.371 0 .603-.088.695-.263C-.021 2.15 0 1.986 0 1.76Z" transform="translate(545.846 253.198)"/>
    <path style="fill:#063;fill-opacity:1;fill-rule:nonzero;stroke:none" d="M0 0c0-.176-.088-.263-.263-.263h-5.249c-.175 0-.262.087-.262.263v.756c0 .185.087.278.262.278h5.249c.175 0 .263-.093.263-.278Z" transform="translate(559.163 277.924)"/>
    <path style="fill:#063;fill-opacity:1;fill-rule:nonzero;stroke:none" d="M0 0c0-.453-.16-.839-.479-1.157a1.574 1.574 0 0 0-1.158-.479c-.453 0-.839.159-1.158.479A1.573 1.573 0 0 0-3.273 0c0 .453.159.839.478 1.158.319.32.705.479 1.158.479.453 0 .839-.159 1.158-.479C-.16.839 0 .453 0 0m-2.394-9.68v1.575a1.924 1.924 0 0 1-1.042-.572c-.283-.298-.424-.633-.424-1.003ZM-3.799 0c0-.453-.159-.839-.478-1.157a1.574 1.574 0 0 0-1.158-.479c-.453 0-.839.159-1.158.479A1.573 1.573 0 0 0-7.071 0c0 .453.159.839.478 1.158.319.32.705.479 1.158.479.453 0 .839-.159 1.158-.479.319-.319.478-.705.478-1.158m7.658-16.658c0-.238-.031-.407-.092-.51-.082-.165-.309-.247-.679-.247H.864v-1.143c0-1.122-.355-1.981-1.065-2.578a75.899 75.899 0 0 1-1.56-.942c-.226-.154-.494-.406-.802-.756-.207-.227-.386-.34-.541-.34-.154 0-.334.113-.54.34-.309.35-.577.602-.803.756-.515.319-1.034.634-1.559.942-.7.597-1.05 1.456-1.05 2.578v1.143h-2.223c-.381 0-.613.087-.695.263-.041.102-.062.267-.062.494v1.76c0 .236.026.406.077.509.083.164.31.247.68.247h5.496v-4.292c0-.391.226-.587.679-.587.463 0 .695.196.695.587v5.481h-3.782c-.505 0-.757.293-.757.88v1.745c0 1.451.464 2.655 1.389 3.612a5.22 5.22 0 0 0 1.9 1.267c.648.236 1.302.472 1.961.71.463.206.85.25 1.344.717.789.748.623 1.579.789 3.719.018.238.445-3.18.445-3.819v-10.02h2.208c.38 0 .612-.087.694-.262.052-.104.077-.268.077-.494z" transform="translate(559.371 269.857)"/>
    <path style="fill:#063;fill-opacity:1;fill-rule:nonzero;stroke:none" d="M0 0v1.683a1.997 1.997 0 0 1-1.119-.611C-1.423.748-1.575.391-1.575 0Zm1.25 3.211V-.881a.615.615 0 0 0-.054-.277c-.036-.072-.152-.109-.347-.109h-3.613c0 1.442.288 2.46.865 3.058.339.35.947.715 1.822 1.096.661.376.703.445.823 1.787.068.759.254.958.337.499.021-.121.167-1.633.167-1.962" transform="translate(567.844 272.755)"/>
    <path style="fill:#063;fill-opacity:1;fill-rule:nonzero;stroke:none" d="M0 0c0-.453-.16-.839-.479-1.158a1.578 1.578 0 0 0-1.158-.479c-.453 0-.839.16-1.158.479A1.58 1.58 0 0 0-3.273 0c0 .453.16.839.478 1.158.319.319.705.479 1.158.479.453 0 .839-.16 1.158-.479C-.16.839 0 .453 0 0m-4.817 0c0-.453-.16-.839-.479-1.158a1.578 1.578 0 0 0-1.158-.479c-.452 0-.839.16-1.157.479-.32.319-.479.705-.479 1.158 0 .453.159.839.479 1.158.318.319.705.479 1.157.479.453 0 .839-.16 1.158-.479.319-.319.479-.705.479-1.158m8.198 10.159c0-.237-.03-.412-.093-.525-.082-.155-.304-.232-.663-.232H.463v-.756c0-1.122-.355-1.982-1.066-2.579-.524-.308-1.044-.617-1.558-.925a3.86 3.86 0 0 1-.741-.773c-.165-.226-.32-.34-.464-.34-.144 0-.298.114-.463.34a3.543 3.543 0 0 1-.726.773c-.525.308-1.045.617-1.559.925-.71.597-1.066 1.457-1.066 2.579v.756h-2.161c-.381 0-.612.087-.694.263-.041.103-.063.268-.063.494v1.76c0 .236.027.406.077.51.083.164.31.247.68.247h4.678c.371 0 .602-.088.695-.263.041-.103.062-.267.062-.494V8.77c0-.361.179-.541.54-.541.371 0 .556.18.556.541v4.801c0 .937-.16 1.611-.479 2.023-.185.247-.473.422-.864.524-.309.093-.463.217-.463.371 0 .103.308.386.926.849.875.648 1.484 1.137 1.837 1.451.615.546.628.535 1.101 1.184.633.868.613 1.389.772 4.956.03.666.443-4.333.443-5.105v-7.148h2.162c.37 0 .597-.088.679-.263.051-.103.077-.267.077-.494z" transform="translate(570.445 243.04)"/>
    <path style="fill:#063;fill-opacity:1;fill-rule:nonzero;stroke:none" d="M0 0c0-.175-.088-.263-.263-.263h-5.249c-.175 0-.262.088-.262.263v.757c0 .185.087.277.262.277h5.249c.175 0 .263-.092.263-.277Z" transform="translate(587.134 241.921)"/>
    <path style="fill:#063;fill-opacity:1;fill-rule:nonzero;stroke:none" d="M0 0v1.574a1.91 1.91 0 0 1-1.042-.571C-1.325.704-1.467.37-1.467 0Zm3.272 5.558v-8.831H-6.67c-.381 0-.612.086-.694.262-.041.103-.063.268-.063.494v1.76c0 .236.027.406.077.51.083.164.31.247.68.247h2.161c.134 1.184.582 2.171 1.344 2.964A5.692 5.692 0 0 0-1.267 4.23c.66.237 1.313.473 1.961.71.464.206.952.536 1.467.989.433.39.69.586.773.586.225 0 .338-.319.338-.957" transform="translate(586.097 255.715)"/>
    <path style="fill:#063;fill-opacity:1;fill-rule:nonzero;stroke:none" d="M542.914 272.454h-3.256v10.752h3.256z"/>
    <path style="fill:#063;fill-opacity:1;fill-rule:nonzero;stroke:none" d="M0 0c-4.487 2.241-8.156 5.658-11.009 10.245-2.855 4.587-4.893 10.295-6.116 17.126-1.223 6.828-1.835 14.831-1.835 24.005 0 7.034.459 13.838 1.376 20.413.917 6.575 2.676 12.435 5.275 17.584 2.6 5.146 6.217 9.251 10.856 12.309 4.638 3.058 10.678 4.587 18.12 4.587 7.439 0 13.479-1.529 18.119-4.587 4.638-3.058 8.256-7.163 10.856-12.309a49.006 49.006 0 0 0 2.171-5.018l-33.821-33.82-6.105 6.105-.746-.745 6.166-6.166-3.43-3.398.721-.728 3.144 3.115L46.921 15.23c-.771-1.783-1.626-3.453-2.579-4.985C41.488 5.658 37.792 2.241 33.257 0c-4.537-2.243-10.068-3.364-16.59-3.364C10.039-3.364 4.485-2.243 0 0m21.257 46.798 28.974 28.973c.262-1.299.497-2.621.686-3.982.917-6.575 1.376-13.379 1.376-20.413 0-9.174-.611-17.177-1.835-24.005a60.169 60.169 0 0 0-1.993-8.034zm-4.59-52.302c7.439 0 14.396 1.632 20.872 4.893 6.471 3.26 12.102 7.542 16.895 12.843 4.79 5.3 8.563 11.366 11.315 18.197 2.752 6.828 4.128 13.811 4.128 20.947 0 8.154-1.505 15.697-4.51 22.63-3.009 6.931-7.01 12.944-12.003 18.042-4.996 5.097-10.68 9.099-17.049 12.004-6.372 2.905-12.92 4.357-19.648 4.357-6.525 0-12.947-1.478-19.266-4.434-6.322-2.957-12.003-7.009-17.049-12.156-5.045-5.148-9.124-11.188-12.232-18.119-3.111-6.933-4.663-14.373-4.663-22.324 0-6.218.941-12.285 2.828-18.195 1.885-5.913 4.561-11.316 8.028-16.208A56.191 56.191 0 0 1-13.302 4.281C-8.512.712-3.21-1.835 2.6-3.364c2.14-.611 4.484-1.859 7.033-3.745 2.547-1.886 4.943-4.306 7.187-7.263 2.546-3.465 4.867-6.319 6.957-8.564 2.088-2.241 4.74-4.025 7.951-5.35 3.211-1.324 7.439-2.294 12.69-2.906 5.25-.612 11.813-.967 20.681-1.07v3.064c-3.83 0-5.453.216-5.798.256-2.941.34-3.394.443-4.78 1.052-1.316.579-3.086 1.757-4.157 2.828-1.071 1.07-1.64 1.821-2.964 3.35a38.948 38.948 0 0 1-6.956 6.269c-2.6 1.835-5.379 2.905-8.334 3.211-2.752.306-5.122.664-7.11 1.07-1.988.408-3.798.893-5.428 1.453a33.44 33.44 0 0 0-4.51 1.911c-1.376.715-2.829 1.48-4.358 2.294l.152.458a37.287 37.287 0 0 1 5.811-.458" transform="translate(379.819 284.703)"/>
    <path style="fill:#063;fill-opacity:1;fill-rule:nonzero;stroke:#063;stroke-width:.5;stroke-linecap:butt;stroke-linejoin:miter;stroke-miterlimit:10;stroke-dasharray:none;stroke-opacity:1" d="M0 0v-8.538" transform="translate(568.866 282.03)"/>
    <path style="fill:#063;fill-opacity:1;fill-rule:nonzero;stroke:#063;stroke-width:.5;stroke-linecap:butt;stroke-linejoin:miter;stroke-miterlimit:10;stroke-dasharray:none;stroke-opacity:1" d="M0 0v-20.397" transform="translate(570.682 281.983)"/>
    <path style="fill:#063;fill-opacity:1;fill-rule:nonzero;stroke:#063;stroke-width:.5;stroke-linecap:butt;stroke-linejoin:miter;stroke-miterlimit:10;stroke-dasharray:none;stroke-opacity:1" d="M0 0v-18.269" transform="translate(560.014 282.149)"/>
    <path style="fill:#063;fill-opacity:1;fill-rule:nonzero;stroke:none" d="M553.073 252.449h-11.815v3.266h11.815zm27.836 0h-11.815v3.266h11.815zm-64.805-.007h-71.186v3.063h71.186z"/>
    <path style="fill:#063;fill-opacity:1;fill-rule:nonzero;stroke:none" d="M0 0c0-.429-.151-.794-.452-1.095a1.498 1.498 0 0 0-1.096-.453c-.428 0-.793.152-1.095.453A1.492 1.492 0 0 0-3.095 0c0 .428.151.793.452 1.095.302.301.667.452 1.095.452.429 0 .793-.151 1.096-.452C-.151.793 0 .428 0 0m-3.825 0c0-.429-.152-.794-.452-1.095a1.496 1.496 0 0 0-1.096-.453c-.428 0-.793.152-1.095.453A1.488 1.488 0 0 0-6.92 0c0 .428.15.793.452 1.095.302.301.667.452 1.095.452.429 0 .794-.151 1.096-.452.3-.302.452-.667.452-1.095M6-14.454c0-1.061-.335-1.873-1.007-2.438-.487-.292-.978-.584-1.474-.876a3.336 3.336 0 0 1-.687-.73c-.165-.214-.316-.321-.452-.321-.127 0-.273.107-.439.321a3.332 3.332 0 0 1-.685.73c-.497.292-.988.584-1.475.876-.672.565-1.008 1.377-1.008 2.438v.716h-14.35c-.77 0-1.303.221-1.303.475 0 .097-.026.287.305.658.457.515.556.602.762.835.427.44.844.993 1.026 1.566.144.454.505 1.519.817 1.605.496.136.334-1.06 1.01-1.518.751-.508 1.26-.557 1.581-.557l12.532.03c.361 0 .579-.082.658-.248.038-.097.058-.253.058-.466v-2.979c0-.341.17-.511.511-.511.35 0 .525.17.525.511v4.54c0 .886-.151 1.524-.452 1.913-.166.234-.438.399-.818.496-.292.088-.438.204-.438.351 0 .097.292.365.876.803.827.613 1.406 1.07 1.738 1.372.37.331.788.794 1.255 1.387.37.457.588.686.657.686.185 0 .277-.364.277-1.095Z" transform="translate(530.497 266.179)"/>
  </g>
  <text style="font-variant:normal;font-weight:400;font-stretch:normal;font-size:120px;font-family:LeedsUni;-inkscape-font-specification:LeedsUni;writing-mode:lr-tb;fill:#063;fill-opacity:1;fill-rule:nonzero;stroke:none" transform="translate(265.963 417.891) scale(1.33333)"><tspan y="0" x="0 103.92">MI</tspan></text>
</svg>
