<svg version="1.2" baseProfile="tiny-ps" xmlns="http://www.w3.org/2000/svg" viewBox="0 0 735 999" width="735" height="999">
	<title>q-logo</title>
	<style>
		tspan { white-space:pre }
		.shp0 { fill: #1c6836 } 
	</style>
	<g id="q-logo">
		<path id="&lt;Compound Path&gt;" fill-rule="evenodd" class="shp0" d="M327.93 805.02L326.87 808.27C337.42 814.05 347.44 819.48 356.93 824.55C366.42 829.6 376.78 834.13 388.04 838.11C399.28 842.08 411.77 845.52 425.47 848.42C439.19 851.3 455.53 853.84 474.51 856.01C494.9 858.18 514.06 865.78 531.99 878.8C549.92 891.81 565.9 906.63 579.97 923.27C589.1 934.13 593.03 939.46 600.42 947.05C607.8 954.64 620.01 963 629.09 967.11C638.64 971.44 641.77 972.16 662.06 974.58C664.44 974.87 675.63 976.4 702.04 976.4L702.04 998.13C640.88 997.41 595.61 994.88 559.41 990.54C523.19 986.2 494.03 979.32 471.88 969.93C449.73 960.52 431.44 947.86 417.04 931.96C402.62 916.04 386.62 895.78 369.05 871.2C353.58 850.21 337.05 833.04 319.49 819.67C301.9 806.28 285.74 797.42 270.98 793.09C230.9 782.24 194.34 764.17 161.3 738.84C128.24 713.53 99.77 683.51 75.87 648.79C51.96 614.07 33.51 575.74 20.51 533.79C7.49 491.84 1 448.8 1 404.68C1 348.26 11.71 295.47 33.17 246.28C54.6 197.1 82.73 154.25 117.53 117.71C152.33 81.2 191.52 52.45 235.12 31.46C278.71 10.49 323 0 368 0C414.4 0 459.57 10.3 503.52 30.92C547.44 51.53 586.65 79.93 621.1 116.09C655.54 152.26 683.14 194.93 703.89 244.11C724.62 293.3 735 346.82 735 404.68C735 455.31 725.51 504.86 706.53 553.31C687.54 601.78 661.53 644.82 628.49 682.42C595.43 720.04 556.59 750.42 511.95 773.56C467.3 796.69 419.31 808.27 368 808.27C354.64 808.27 341.27 807.19 327.93 805.02ZM587.32 632.01C592.88 614.4 597.51 595.46 601.07 575.01C609.5 526.56 613.72 469.77 613.72 404.68C613.72 354.77 610.56 306.49 604.23 259.84C602.92 250.18 601.3 240.8 599.5 231.58L399.66 437.16L587.32 632.01ZM368 793.09C412.98 793.09 451.13 785.13 482.42 769.22C513.7 753.32 539.19 729.07 558.88 696.53C565.46 685.65 571.35 673.81 576.67 661.15L347.82 423.54L326.14 445.64L321.17 440.48L344.83 416.37L302.3 372.62L307.44 367.33L349.55 410.65L582.82 170.68C578.37 158.34 573.42 146.43 567.84 135.07C549.92 98.56 524.96 69.44 492.97 47.74C460.97 26.04 419.31 15.19 368 15.19C316.67 15.19 275.01 26.04 243.03 47.74C211.03 69.44 186.08 98.56 168.15 135.07C150.22 171.61 138.1 213.19 131.77 259.84C125.44 306.49 122.28 354.77 122.28 404.68C122.28 469.77 126.5 526.56 134.93 575.01C143.37 623.48 157.43 663.98 177.12 696.53C196.79 729.07 222.1 753.32 253.05 769.22C283.98 785.13 322.29 793.09 368 793.09Z" />
	</g>
</svg>